<svg width="1440" height="900" viewBox="0 0 1440 900" fill="none" xmlns="http://www.w3.org/2000/svg">
<rect width="1440" height="900" fill="#333333"/>
<circle cx="277" cy="298" r="98" fill="#FAF9F9"/>
<rect y="298" width="1440" height="602" fill="#E2F8FF"/>
<path d="M1123.35 453.89C1120.14 465.184 1157.44 483.975 1177.65 465.409C1197.87 446.844 1127.41 439.65 1123.35 453.89Z" fill="#80DEEA"/>
<path d="M1305.07 633L1315.57 636C1316.74 638 1316.47 642.5 1306.07 644.5C1295.67 646.5 1284.41 669.333 1280.07 680.5C1276.91 680.5 1271.17 679.8 1273.57 677C1275.97 674.2 1274.57 666.5 1273.57 663L1284.07 657C1288.47 651.8 1286.91 645.5 1285.57 643L1295.07 642C1303.07 641.6 1305.07 635.833 1305.07 633Z" fill="#676767"/>
<path d="M1243.15 569.749L1233.11 574.044C1230.94 573.227 1228.31 569.567 1235.12 561.456C1241.93 553.344 1236.27 528.519 1232.59 517.121C1235.05 515.123 1239.94 512.051 1239.84 515.737C1239.75 519.424 1245.69 524.516 1248.67 526.602L1244.31 537.88C1244.17 544.69 1249.36 548.591 1251.97 549.691L1245.23 556.458C1239.28 561.814 1241.36 567.551 1243.15 569.749Z" fill="#676767"/>
<path d="M1245.43 504.71L1240.11 514.25C1237.9 514.931 1233.58 513.646 1234 503.064C1234.42 492.481 1214.76 476.31 1204.87 469.546C1205.59 466.463 1207.58 461.04 1209.76 464.015C1211.94 466.989 1219.75 467.38 1223.39 467.204L1226.84 478.795C1230.9 484.263 1237.39 484.173 1240.13 483.444L1238.94 492.922C1237.51 500.803 1242.67 504.064 1245.43 504.71Z" fill="#676767"/>
<path d="M1200.36 452.602L1204.8 462.581C1204.01 464.759 1200.39 467.442 1192.18 460.747C1183.98 454.052 1159.23 460.058 1147.89 463.897C1145.86 461.468 1142.71 456.621 1146.4 456.666C1150.09 456.711 1155.1 450.697 1157.14 447.684L1168.48 451.89C1175.29 451.929 1179.12 446.686 1180.18 444.059L1187.04 450.705C1192.48 456.585 1198.19 454.42 1200.36 452.602Z" fill="#676767"/>
<path d="M136 899L179 298H375L921 899H136Z" fill="#80DEEA"/>
<path d="M245 542.5C226.6 529.3 159.333 511.333 128 504C78.8 516.8 117.5 535 143 542.5C184.667 548 263.4 555.7 245 542.5Z" fill="#80DEEA"/>
<path d="M123.29 461.943C114.5 544 273 537.5 279.563 493.931C279.563 493.931 281 487.5 281.5 482C281.651 480.333 288.933 480 288.5 476C288.172 472.971 280.235 471.227 278.5 473C271.377 480.28 273.5 495.471 255 496.674C208.41 499.706 172.49 489.412 148.866 478C148.866 478 136 468.5 136 450C136 442 125.297 435.502 120.5 438.5C116.5 441 111 447 123.29 450L123.29 461.943Z" fill="#333333"/>
<rect x="204.022" y="421" width="5" height="77.8481" transform="rotate(7.39702 204.022 421)" fill="#333333"/>
<path d="M230.285 396.711C221.085 414.311 194.119 426.044 181.785 429.711C169.119 445.544 151.385 477.511 181.785 478.711C212.185 479.911 228.452 463.544 232.785 455.211C235.785 428.377 239.485 379.111 230.285 396.711Z" fill="#333333"/>
<path d="M1250.11 682.433C1247.73 693.933 1286.31 709.933 1305.11 689.933C1323.91 669.933 1253.11 667.933 1250.11 682.433Z" fill="#80DEEA"/>
<path d="M1200.46 570.433C1198.08 581.933 1236.66 597.933 1255.46 577.933C1274.26 557.933 1203.46 555.933 1200.46 570.433Z" fill="#80DEEA"/>
<path d="M1220.11 366.433C1217.73 377.933 1256.31 393.933 1275.11 373.933C1293.91 353.933 1223.11 351.933 1220.11 366.433Z" fill="#80DEEA"/>
<path d="M1264.67 317.725L1275.51 319.037C1276.98 320.829 1277.42 325.315 1267.47 328.925C1257.51 332.535 1249.98 356.856 1247.45 368.565C1244.33 369.063 1238.55 369.274 1240.48 366.131C1242.41 362.989 1239.82 355.604 1238.28 352.305L1247.71 344.729C1251.24 338.902 1248.7 332.926 1246.99 330.667L1256.21 328.186C1264.05 326.533 1265.12 320.523 1264.67 317.725Z" fill="#676767"/>
<path d="M1257 367.5C1247.8 371.1 1241.33 370.5 1238 367.5C1244.8 342.3 1266.17 324.333 1276 318.5C1289.67 317.5 1311.7 317.3 1290.5 324.5C1269.3 331.7 1258.5 354.667 1257 367.5Z" fill="#333333"/>
<path d="M1319.5 648C1293.5 650.5 1290.01 670.551 1288.18 680.113C1286.86 687 1270.73 686.5 1271.47 683.616C1277.62 659.617 1295.21 641.252 1305.99 639.602C1317.42 637.85 1339.27 646.099 1319.5 648Z" fill="#333333"/>
<path d="M1332.98 647.796C1327.33 629.314 1307.97 636.608 1299 642.565L1309.15 647.796C1319.45 655.496 1338.63 666.277 1332.98 647.796Z" fill="#333333"/>
<path d="M1159.67 466.66C1231.27 463.46 1230.51 534.66 1221.17 570.66C1221.17 582.66 1232.51 578.994 1238.17 575.66C1268.17 430.16 1148.67 449.66 1144.17 457.16C1140.57 463.16 1153.01 465.994 1159.67 466.66Z" fill="#333333"/>
</svg>
