<svg width="1440" height="900" viewBox="0 0 1440 900" fill="none" xmlns="http://www.w3.org/2000/svg">
<g clip-path="url(#clip0)">
<rect width="1440" height="900" fill="#E2F8FF"/>
<path d="M226.402 568.356C202.193 524.425 158.714 520.984 140 524.754L175.271 568.356C202.402 586.661 250.612 612.287 226.402 568.356Z" fill="#333333"/>
<path d="M281.402 618.004C257.193 573.437 213.714 569.945 195 573.771L230.271 618.004C257.402 636.574 305.612 662.572 281.402 618.004Z" fill="#333333"/>
<circle cx="1335" cy="118" r="228" fill="#333333"/>
<path d="M131 526.5L140.023 524.754L206.726 586.912L188.873 593.417C189.463 590.773 189.508 584.629 184.962 581.209C180.416 577.788 170.597 583.374 166.256 586.594C167.462 584.796 168.931 579.926 165.163 574.831C161.396 569.737 148.552 575.858 142.602 579.556C146.388 574.648 153.217 563.786 150.234 559.608C147.252 555.431 138.004 556.456 133.753 557.491C137.475 553.446 144.729 544.17 143.975 539.427C143.221 534.684 134.297 527.248 131 526.5Z" fill="#333333"/>
<path d="M131 526.5L140.023 524.754L206.726 586.912L188.873 593.417C189.463 590.773 189.508 584.629 184.962 581.209C180.416 577.788 170.597 583.374 166.256 586.594C167.462 584.796 168.931 579.926 165.163 574.831C161.396 569.737 148.552 575.858 142.602 579.556C146.388 574.648 153.217 563.786 150.234 559.608C147.252 555.431 138.004 556.456 133.753 557.491C137.475 553.446 144.729 544.17 143.975 539.427C143.221 534.684 134.297 527.248 131 526.5Z" fill="#333333"/>
<path d="M205 601.378L209.847 591.613L285.865 641.401L272.254 651.613C272.298 648.87 271.099 642.77 265.947 640.308C260.795 637.847 252.292 645.392 248.685 649.472C249.504 647.443 249.96 642.315 245.233 638.034C240.506 633.753 229.144 642.449 224.054 647.332C226.776 641.691 231.277 629.526 227.506 625.994C223.735 622.462 214.87 625.37 210.909 627.265C213.741 622.493 218.982 611.813 217.282 607.265C215.583 602.716 208.386 601.445 205 601.378Z" fill="#333333"/>
<path d="M205 601.378L209.847 591.613L285.865 641.401L272.254 651.613C272.298 648.87 271.099 642.77 265.947 640.308C260.795 637.847 252.292 645.392 248.685 649.472C249.504 647.443 249.96 642.315 245.233 638.034C240.506 633.753 229.144 642.449 224.054 647.332C226.776 641.691 231.277 629.526 227.506 625.994C223.735 622.462 214.87 625.37 210.909 627.265C213.741 622.493 218.982 611.813 217.282 607.265C215.583 602.716 208.386 601.445 205 601.378Z" fill="#333333"/>
<path d="M127.182 624.037C160.259 607.987 199.149 571.5 210.782 572.329C219.16 566.87 237.038 560.471 241.525 578.548C246.012 596.626 215 595.83 202.888 602.596C178 616.5 -24.6643 697.72 127.182 624.037Z" fill="#333333"/>
<path d="M250.578 540.582C244.151 556.196 224.485 566.125 217 569.755L228.124 594.613C239.797 582.355 249.424 551.635 265.41 551.471C281.396 551.306 281.135 548.458 275.504 542.842C265.273 535.926 257.005 524.969 250.578 540.582Z" fill="#333333"/>
<circle cx="608" cy="536" r="86" fill="#B2EBF2"/>
<circle cx="608" cy="536" r="86" fill="#B2EBF2"/>
<circle cx="643" cy="622" r="66" fill="#B2EBF2"/>
<circle cx="643" cy="622" r="66" fill="#B2EBF2"/>
<circle cx="709" cy="536" r="66" fill="#B2EBF2"/>
<circle cx="709" cy="536" r="66" fill="#B2EBF2"/>
<circle cx="526" cy="598" r="90" fill="#B2EBF2"/>
<circle cx="526" cy="598" r="90" fill="#B2EBF2"/>
<circle cx="236.557" cy="290.531" r="61" transform="rotate(-150 236.557 290.531)" fill="#B2EBF2"/>
<circle cx="236.557" cy="290.531" r="61" transform="rotate(-150 236.557 290.531)" fill="#B2EBF2"/>
<circle cx="245.406" cy="225.203" r="47" transform="rotate(-150 245.406 225.203)" fill="#B2EBF2"/>
<circle cx="245.406" cy="225.203" r="47" transform="rotate(-150 245.406 225.203)" fill="#B2EBF2"/>
<circle cx="174.203" cy="254.531" r="47" transform="rotate(-150 174.203 254.531)" fill="#B2EBF2"/>
<circle cx="174.203" cy="254.531" r="47" transform="rotate(-150 174.203 254.531)" fill="#B2EBF2"/>
<circle cx="308.786" cy="281.426" r="64" transform="rotate(-150 308.786 281.426)" fill="#B2EBF2"/>
<circle cx="308.786" cy="281.426" r="64" transform="rotate(-150 308.786 281.426)" fill="#B2EBF2"/>
<circle cx="1299.48" cy="506.319" r="118.803" transform="rotate(165 1299.48 506.319)" fill="#B2EBF2"/>
<circle cx="1299.48" cy="506.319" r="118.803" transform="rotate(165 1299.48 506.319)" fill="#B2EBF2"/>
<circle cx="1222.03" cy="404.078" r="91.1742" transform="rotate(165 1222.03 404.078)" fill="#B2EBF2"/>
<circle cx="1222.03" cy="404.078" r="91.1742" transform="rotate(165 1222.03 404.078)" fill="#B2EBF2"/>
<circle cx="1143.67" cy="481.882" r="91.1742" transform="rotate(165 1143.67 481.882)" fill="#B2EBF2"/>
<circle cx="1143.67" cy="481.882" r="91.1742" transform="rotate(165 1143.67 481.882)" fill="#B2EBF2"/>
<circle cx="1386.73" cy="394.271" r="124.328" transform="rotate(165 1386.73 394.271)" fill="#B2EBF2"/>
<circle cx="1386.73" cy="394.271" r="124.328" transform="rotate(165 1386.73 394.271)" fill="#B2EBF2"/>
<ellipse cx="750.5" cy="17.5" rx="159.5" ry="159.5" fill="#B2EBF2"/>
<ellipse cx="750.5" cy="17.5" rx="159.5" ry="159.5" fill="#B2EBF2"/>
<ellipse cx="815.5" cy="176.5" rx="122.5" ry="122.5" fill="#B2EBF2"/>
<ellipse cx="815.5" cy="176.5" rx="122.5" ry="122.5" fill="#B2EBF2"/>
<ellipse cx="944.5" cy="103" rx="122.5" ry="122" fill="#B2EBF2"/>
<ellipse cx="944.5" cy="103" rx="122.5" ry="122" fill="#B2EBF2"/>
<ellipse cx="599" cy="132" rx="167" ry="167" fill="#B2EBF2"/>
<ellipse cx="599" cy="132" rx="167" ry="167" fill="#B2EBF2"/>
</g>
<defs>
<clipPath id="clip0">
<rect width="1440" height="900" fill="white"/>
</clipPath>
</defs>
</svg>
