<svg width="282" height="340" viewBox="0 0 282 340" fill="none" xmlns="http://www.w3.org/2000/svg">
<rect x="57.7056" y="0.492432" width="227.821" height="301.37" rx="16" transform="rotate(11.0236 57.7056 0.492432)" fill="#80DEEA"/>
<path d="M77.1694 96.494C88.1346 96.494 102.892 93.6278 112.553 100.197C114.724 101.673 117.018 104.069 118.416 106.266C121.091 110.47 125.23 113.309 128.187 117.374C131.778 122.312 142.137 126.827 147.73 128.894C155.463 131.752 164.902 130.746 172.982 130.746C181.609 130.746 189.29 129.449 197.719 127.763C200.388 127.229 212.812 126.069 214.177 123.34" stroke="#B2EBF2" stroke-width="15" stroke-linecap="round" stroke-linejoin="round"/>
<path d="M70.8091 155.762C82.4189 155.762 97.9064 152.993 108.764 157.819C116.54 161.275 121.656 169.202 129.13 172.939C131.696 174.222 132.73 176.436 135.61 177.259C138.873 178.191 141.679 180.224 144.97 181.271C155.594 184.651 164.765 185.385 175.879 185.385C188.166 185.385 199.913 184.245 210.594 178.905" stroke="#B2EBF2" stroke-width="15" stroke-linecap="round" stroke-linejoin="round"/>
<path d="M62.8638 210.229C74.4735 210.229 89.9611 207.461 100.818 212.286C108.595 215.742 113.711 223.67 121.184 227.407C123.751 228.69 124.785 230.904 127.665 231.727C130.928 232.659 133.734 234.691 137.025 235.738C147.649 239.119 156.82 239.852 167.934 239.852C180.221 239.852 191.967 238.713 202.648 233.372" stroke="#B2EBF2" stroke-width="15" stroke-linecap="round" stroke-linejoin="round"/>
</svg>
