<svg width="63" height="26" viewBox="0 0 63 26" fill="none" xmlns="http://www.w3.org/2000/svg">
<g clip-path="url(#clip0)">
<path d="M10.1715 13.9357C11.9299 13.9357 13.3554 12.493 13.3554 10.7134C13.3554 8.93372 11.9299 7.49103 10.1715 7.49103C8.41314 7.49103 6.98767 8.93372 6.98767 10.7134C6.98767 12.493 8.41314 13.9357 10.1715 13.9357Z" fill="#808080"/>
<path d="M6.98767 19.883L0.639832 19.9071C0.639832 19.9071 2.93716 15.468 3.7839 12.4071C5.00577 7.9901 8.09651 4.59996 8.09651 7.59212C8.09651 13.2772 12.0219 13.4916 12.0219 13.4916L13.3355 19.8568L6.98767 19.883Z" fill="#80DEEA"/>
<path d="M11.4869 19.8648L7.33591 19.8809C7.33591 19.8809 8.82059 17.0544 9.34404 15.097C9.76236 13.5327 9.62867 13.5757 10.0899 11.0955C10.5512 8.61523 13.5445 14.9145 13.5445 14.9145L15.6398 19.8467L11.4869 19.8648Z" fill="#B2EBF2"/>
</g>
<path d="M19.6128 18.8271C20.4768 19.4211 21.2328 19.7091 21.4308 19.7811C22.3128 20.1051 23.0328 20.1771 23.7888 20.1771C25.0668 20.1771 26.3088 19.9791 27.3348 18.9531C28.1988 18.0891 28.4688 17.0271 28.4688 15.9291C28.4688 15.1011 28.3068 14.4351 27.6948 13.7871C27.0648 13.1031 26.2728 12.8331 25.5168 12.5991L24.5628 12.3111C23.8248 12.0951 23.6088 11.8791 23.5188 11.7711C23.3928 11.6091 23.3568 11.4471 23.3568 11.2311C23.3568 10.9611 23.4828 10.7631 23.6628 10.5831C23.9688 10.2951 24.3828 10.2231 24.6888 10.2231C25.1028 10.2231 25.8048 10.2951 26.7408 11.0331L27.9828 8.6031C26.8488 8.0091 25.4628 7.6311 24.2748 7.6311C22.8168 7.6311 21.8088 8.1531 21.1968 8.7651C20.6748 9.2871 20.0988 10.1871 20.0988 11.6631C20.0988 12.2751 20.1708 13.1211 20.7828 13.7871C21.2688 14.3271 22.0068 14.5971 22.5108 14.7591L23.3208 15.0111C24.0948 15.2451 24.5628 15.3711 24.8688 15.6411C25.1208 15.8571 25.2108 16.1271 25.2108 16.3611C25.2108 16.6671 25.0848 16.9371 24.9048 17.1171C24.7068 17.3331 24.3288 17.5311 23.6988 17.5311C22.6188 17.5311 21.6108 16.9371 20.9448 16.3071L19.6128 18.8271ZM36.394 12.6351C36.052 12.2571 35.278 11.5911 33.982 11.5911C32.83 11.5911 31.768 12.0411 31.084 12.7251C30.436 13.3731 29.842 14.4351 29.842 15.9471C29.842 17.1531 30.22 18.0711 30.994 18.8991C31.966 19.9251 33.028 20.1771 33.892 20.1771C34.684 20.1771 35.728 19.9431 36.394 19.0251V19.9071H39.274V11.8611H36.394V12.6351ZM34.63 14.0391C35.242 14.0391 35.656 14.3091 35.926 14.5611C36.376 14.9931 36.484 15.4971 36.484 15.8751C36.484 16.5231 36.196 16.9191 35.944 17.1711C35.584 17.5311 35.116 17.7291 34.648 17.7291C34.162 17.7291 33.658 17.4771 33.352 17.1891C32.992 16.8471 32.794 16.3431 32.794 15.8751C32.794 15.4611 32.974 14.9391 33.37 14.5611C33.784 14.1651 34.27 14.0391 34.63 14.0391ZM47.4318 11.8611V12.6891C46.5858 11.7351 45.5418 11.6271 45.0378 11.6271C43.9758 11.6271 42.8958 12.0411 42.1218 12.8511C41.4198 13.5891 40.9338 14.7411 40.9338 16.0011C40.9338 17.0991 41.3298 18.1971 42.0498 18.9351C42.5898 19.4931 43.5438 20.0691 45.0198 20.0691C45.6678 20.0691 46.5318 19.9611 47.4318 19.0071V19.8171C47.4318 20.2851 47.3418 20.8611 46.8558 21.3111C46.4778 21.6711 46.0278 21.7611 45.5778 21.7611C44.6238 21.7611 44.3358 21.2571 44.2278 20.9331H41.0238C41.1318 21.6351 41.4378 22.1211 41.9058 22.6071C42.9318 23.6511 44.1738 24.0291 45.6678 24.0291C46.8378 24.0291 48.1878 23.7771 49.2138 22.7331C50.2038 21.7071 50.3118 20.6091 50.3118 19.4031V11.8611H47.4318ZM45.7218 14.0211C46.2078 14.0211 46.6758 14.2191 46.9998 14.5431C47.3418 14.8851 47.5758 15.4431 47.5758 15.8571C47.5758 16.2711 47.3958 16.7931 47.0358 17.1531C46.6938 17.4951 46.1898 17.6931 45.7398 17.6931C45.3078 17.6931 44.8218 17.5491 44.4438 17.1711C44.0838 16.8111 43.8858 16.3251 43.8858 15.8571C43.8858 15.4791 44.0298 14.9931 44.4438 14.5611C44.8218 14.1831 45.2358 14.0211 45.7218 14.0211ZM58.5249 12.6351C58.1829 12.2571 57.4089 11.5911 56.1129 11.5911C54.9609 11.5911 53.8989 12.0411 53.2149 12.7251C52.5669 13.3731 51.9729 14.4351 51.9729 15.9471C51.9729 17.1531 52.3509 18.0711 53.1249 18.8991C54.0969 19.9251 55.1589 20.1771 56.0229 20.1771C56.8149 20.1771 57.8589 19.9431 58.5249 19.0251V19.9071H61.4049V11.8611H58.5249V12.6351ZM56.7609 14.0391C57.3729 14.0391 57.7869 14.3091 58.0569 14.5611C58.5069 14.9931 58.6149 15.4971 58.6149 15.8751C58.6149 16.5231 58.3269 16.9191 58.0749 17.1711C57.7149 17.5311 57.2469 17.7291 56.7789 17.7291C56.2929 17.7291 55.7889 17.4771 55.4829 17.1891C55.1229 16.8471 54.9249 16.3431 54.9249 15.8751C54.9249 15.4611 55.1049 14.9391 55.5009 14.5611C55.9149 14.1651 56.4009 14.0391 56.7609 14.0391Z" fill="#808080"/>
<defs>
<clipPath id="clip0">
<rect width="15" height="15" fill="white" transform="translate(0.639832 4.9071)"/>
</clipPath>
</defs>
</svg>
