<svg xmlns="http://www.w3.org/2000/svg" viewBox="0 0 116.45 28.71"><defs><style>.cls-1,.cls-2{fill:gray;}.cls-2,.cls-3,.cls-4{stroke:gray;stroke-miterlimit:10;stroke-width:3px;}.cls-3{fill:#b2ebf2;}.cls-4{fill:#80deea;}</style></defs><g id="Layer_2" data-name="Layer 2"><g id="Layer_1-2" data-name="Layer 1"><path class="cls-1" d="M17.7,10.55a10,10,0,0,0-5.27-1.94,3.15,3.15,0,0,0-1.78.46,1.07,1.07,0,0,0-.46.93c0,.55.08,1.05,1.51,1.36l3,.66a8.67,8.67,0,0,1,4.42,2.21,6.9,6.9,0,0,1,2,5.11,8.32,8.32,0,0,1-2.32,6.08c-1.47,1.51-4.26,3.29-9.1,3.29a21.51,21.51,0,0,1-8.8-2L0,26.35l2.83-7.28,1,.77a9,9,0,0,0,5.22,1.9,3.27,3.27,0,0,0,2-.46,1.38,1.38,0,0,0,.5-1.17,1.26,1.26,0,0,0-.31-.89,3.56,3.56,0,0,0-1.78-.62l-2.28-.42A7.79,7.79,0,0,1,2.71,16,6.45,6.45,0,0,1,.85,11.21,8.36,8.36,0,0,1,3.37,5.05c2-2,4.88-3.34,9-3.34A14.59,14.59,0,0,1,20.22,4Z"/><path class="cls-1" d="M70.74,13.1H85.26v.58c0,3.18-.27,7.48-3.37,10.81-2.55,2.75-6.7,4.22-11,4.22-5.42,0-8.72-2.16-10.65-4.26A12.9,12.9,0,0,1,57,15.27a13.07,13.07,0,0,1,3.56-9.49c2.09-2.17,5.66-4.07,10.85-4.07A15.56,15.56,0,0,1,79,3.53a12.08,12.08,0,0,1,5,4.77l-8.76,3.25a4,4,0,0,0-3.56-2,4.78,4.78,0,0,0-3.29,1.2,6.53,6.53,0,0,0-1.9,4.88,6.54,6.54,0,0,0,1.7,4.61,4.31,4.31,0,0,0,3.06,1.16c1.4,0,3.22-.5,3.84-2.21H70.74Z"/><path class="cls-1" d="M98.51,24.92l-.69,3.21H87.9L96.85,2.3h10.38l9.22,25.83h-10l-.85-3.21Zm3.8-14H102a13.06,13.06,0,0,1-.43,2.91l-1.27,5H104l-1.2-5C102.58,12.83,102.43,11.86,102.31,10.93Z"/><circle class="cls-2" cx="42.4" cy="12.65" r="4.9"/><polygon class="cls-3" points="37.44 26.57 27.67 26.57 32.56 15.19 37.45 3.8 42.33 15.19 47.21 26.57 37.44 26.57"/><polygon class="cls-4" points="44.36 26.57 37.97 26.57 41.17 19.06 44.37 11.55 47.56 19.06 50.75 26.57 44.36 26.57"/></g></g></svg>