<svg width="1440" height="849" viewBox="0 0 1440 849" fill="none" xmlns="http://www.w3.org/2000/svg">
<mask id="mask0" mask-type="alpha" maskUnits="userSpaceOnUse" x="0" y="0" width="1440" height="849">
<path d="M1440 0H0V849H1440V0Z" fill="#F2FCFF"/>
</mask>
<g mask="url(#mask0)">
<path d="M1440 0H0V849H1440V0Z" fill="url(#paint0_linear)"/>
<path d="M941.853 324.853C1016.88 324.853 1077.7 263.814 1077.7 188.519C1077.7 113.223 1016.88 52.1844 941.853 52.1844C866.823 52.1844 806 113.223 806 188.519C806 263.814 866.823 324.853 941.853 324.853Z" fill="#D8D8D8"/>
<path d="M344.239 337.151H184.052L205.859 150.63H318.357L344.239 337.151Z" fill="#EAEEF0"/>
<path d="M288.601 277.75H236.279L243.401 216.824H280.146L288.601 277.75Z" fill="#CCCCCC"/>
<path d="M312.543 207.078H212.074V216.79H312.543V207.078Z" fill="#CCCCCC"/>
<path d="M297.114 182.945L287.555 189.518L262.371 206.829L237.191 189.518L227.633 182.945H212.031L237.21 200.256L262.39 217.567L287.569 200.256L312.749 182.945H297.114Z" fill="#CCCCCC"/>
<path d="M407.801 335.718H130.66L0.740417 440.46V654.461H531.119V470.302L407.801 335.718Z" fill="#EAEEF0"/>
<path d="M303.276 421.673H279.334V422.081H248.637H222.239V421.673H198.875C194.824 421.673 191.542 423.849 191.542 426.534V439.195C191.542 441.879 194.824 444.056 198.875 444.056H214.907C218.958 444.056 222.239 446.232 222.239 448.917V452.627C222.239 455.312 225.521 457.488 229.572 457.488H241.304C245.355 457.488 248.637 459.665 248.637 462.349V476.64C248.637 479.325 251.919 481.501 255.97 481.501H272.001C276.052 481.501 279.334 479.325 279.334 476.64V471.712C279.334 469.027 282.616 466.851 286.666 466.851H295.943C299.994 466.851 303.276 464.674 303.276 461.99V448.514C303.276 445.83 306.558 443.653 310.609 443.653H326.64C330.691 443.653 333.973 441.477 333.973 438.792V426.539C333.973 423.854 330.691 421.678 326.64 421.678H303.276V421.673Z" fill="#CCCCCC"/>
<path d="M195.378 443.246C189.751 446.208 187.75 452.551 190.917 458.135C194.7 464.799 202.482 467.666 206.776 473.84C207.779 475.283 209.905 475.854 211.243 474.416C212.743 472.805 213.846 471.046 214.448 468.917C212.618 468.917 210.794 468.917 208.964 468.917C209.15 469.905 209.337 470.887 209.528 471.875C209.853 473.586 212.279 474.603 213.708 473.581C215.709 472.148 217.028 470.063 216.134 467.541C214.4 468.275 212.671 469.008 210.937 469.742C211.654 471.074 212.652 471.971 213.903 472.8C215.279 473.711 216.927 472.968 217.797 471.774C223.735 463.61 227.217 449.665 216.622 443.759C211.486 440.897 205.592 441.477 200.036 442.474C197.432 442.944 195.292 443.548 194.184 446.175C192.952 449.094 192.044 452.201 190.993 455.192C190.071 457.809 193.945 460.154 195.746 457.968C198.44 454.693 201.139 451.419 203.834 448.14C206.136 445.345 202.224 441.299 199.811 444.104C196.635 447.8 193.907 451.798 191.896 456.256C190.644 459.032 193.96 462.215 196.362 459.713C200.155 455.767 203.943 451.822 207.736 447.876C206.246 446.726 204.76 445.571 203.27 444.42C200.595 448.682 197.92 452.939 195.245 457.201C196.883 458.159 198.517 459.123 200.155 460.082C202.716 455.494 206.356 451.726 210.598 448.658C209.303 447.359 208.004 446.055 206.709 444.756C203.48 450.139 197.122 453.543 195.77 460.043C195.216 462.704 198.455 464.991 200.523 462.819C205.009 458.111 209.494 453.404 213.98 448.696C212.49 447.546 211.004 446.39 209.513 445.24C205.878 450.825 202.052 456.275 198.044 461.597C196.1 464.176 200.375 467.46 202.51 465.053C206.986 460.015 211.305 454.842 215.446 449.526C213.86 448.6 212.279 447.675 210.693 446.75C208.372 452.33 205.205 457.594 201.517 462.373C203.007 463.524 204.493 464.679 205.983 465.83C209.571 460.82 213.421 456.021 217.491 451.395C216.001 451.203 214.515 451.012 213.025 450.82C215.614 455.087 215.38 460.489 211.773 464.181C211.472 464.487 211.152 464.818 210.76 465.015C210.464 465.183 210.149 465.269 209.814 465.264C209.222 465.202 209.17 465.576 209.657 466.386C209.733 466.4 211.252 463.783 211.448 463.485C213.22 460.801 214.988 458.121 216.76 455.437C214.993 454.957 213.225 454.478 211.462 453.998C211.462 458.054 210.029 461.779 207.555 464.972C209.141 465.393 210.722 465.811 212.308 466.232C211.152 463.327 209.776 460.6 208.061 457.987C206.423 458.946 204.789 459.909 203.151 460.868C206.246 465.048 208.486 469.574 209.547 474.689C210.015 476.952 212.79 477.234 214.3 475.95C215.919 474.569 216.932 472.661 216.741 470.499C215.122 471.17 213.502 471.846 211.888 472.517C213.029 473.864 214.415 474.579 216.029 475.211C218.131 476.041 220.032 473.625 219.526 471.702C219.216 470.518 218.905 469.334 218.599 468.15C217.434 469.32 216.268 470.489 215.103 471.659C216.779 471.932 218.456 472.21 220.137 472.484C222.746 472.91 225.134 469.861 222.903 467.714C221.891 466.741 221.15 465.763 220.534 464.502C219.822 463.04 217.945 462.853 216.645 463.476C212.408 465.509 208.166 467.541 203.929 469.574C205.357 470.394 206.781 471.218 208.209 472.038C207.985 470.259 207.756 468.481 207.531 466.707C207.13 463.572 203.084 462.757 201.947 465.95C201.698 466.649 201.335 467.23 200.858 467.8C202.444 468.222 204.025 468.639 205.611 469.061C205.042 467.292 204.588 465.513 204.24 463.687C203.557 460.082 198.077 461.606 198.756 465.206C199.1 467.033 199.558 468.812 200.127 470.58C200.733 472.464 203.423 473.572 204.88 471.841C206.031 470.475 206.829 469.161 207.431 467.474C205.568 467.22 203.705 466.966 201.846 466.717C202.071 468.495 202.3 470.274 202.525 472.047C202.807 474.257 204.703 475.518 206.805 474.511C211.042 472.479 215.284 470.446 219.521 468.414C218.227 468.073 216.927 467.733 215.628 467.388C216.44 469.056 217.553 470.47 218.886 471.755C219.808 470.163 220.73 468.577 221.652 466.985C219.975 466.712 218.298 466.434 216.617 466.161C214.525 465.82 212.523 467.402 213.12 469.67C213.431 470.854 213.741 472.038 214.047 473.222C215.212 472.052 216.378 470.882 217.544 469.713C216.822 469.43 216.402 469.066 215.91 468.486C214.367 466.664 210.841 468.083 211.056 470.504C211.133 471.367 210.956 471.347 210.283 471.918C211.869 472.34 213.45 472.757 215.036 473.179C213.884 467.637 211.419 462.527 208.066 457.996C205.936 455.12 201.101 457.747 203.155 460.878C204.584 463.059 205.864 465.331 206.829 467.762C207.517 469.492 210.115 470.911 211.582 469.022C215.002 464.612 217.157 459.674 217.157 454.013C217.157 451.074 213.373 450.273 211.859 452.575C210.34 454.876 208.826 457.172 207.307 459.473C206.136 461.252 204.608 463.049 204.144 465.168C203.055 470.135 208.897 471.913 212.628 470.427C216.459 468.903 219.115 464.396 220.056 460.528C221.117 456.17 220.252 451.764 217.945 447.963C217.042 446.477 214.72 445.973 213.478 447.388C209.093 452.378 204.951 457.575 201.082 462.977C199.214 465.58 203.571 468.998 205.549 466.434C209.886 460.815 213.459 454.856 216.192 448.294C217.267 445.714 213.149 443.322 211.439 445.518C207.297 450.834 202.979 456.007 198.503 461.045C199.993 462.196 201.479 463.351 202.969 464.502C206.977 459.181 210.803 453.73 214.439 448.145C216.211 445.422 212.193 442.354 209.972 444.689C205.486 449.396 201.001 454.104 196.515 458.811C198.101 459.737 199.682 460.662 201.268 461.587C201.856 458.763 203.905 456.697 205.83 454.674C207.927 452.469 210.063 450.288 211.639 447.661C213.029 445.341 210.125 442.037 207.746 443.754C202.711 447.397 198.316 451.76 195.264 457.225C193.468 460.441 198.225 463.207 200.174 460.106C202.85 455.844 205.525 451.587 208.2 447.325C209.924 444.583 205.974 441.534 203.733 443.869C199.945 447.814 196.152 451.76 192.359 455.705C193.85 456.856 195.335 458.011 196.826 459.161C198.636 455.154 200.987 451.496 203.853 448.164C202.51 446.817 201.173 445.475 199.831 444.128C197.136 447.402 194.437 450.676 191.743 453.955C193.329 454.88 194.91 455.806 196.496 456.731C197.241 454.607 197.991 452.479 198.737 450.355C198.971 449.684 199.358 448.557 199.606 448.375C200.265 447.891 202.09 447.896 202.893 447.771C206.709 447.167 210.956 446.875 214.357 449.056C221.227 453.471 216.626 463.792 212.9 468.917C214.195 468.577 215.494 468.236 216.794 467.891C216.34 467.68 216.034 467.345 215.867 466.88C214.362 464.085 209.576 465.988 210.669 469.08C210.732 468.946 210.794 468.807 210.856 468.673C212.251 469.243 213.641 469.809 215.036 470.379C214.849 469.392 214.663 468.409 214.472 467.421C213.927 464.55 209.714 464.861 208.988 467.421C208.649 468.61 208.08 469.502 207.244 470.403C208.735 470.595 210.22 470.787 211.711 470.978C208.276 466.036 203.131 463.025 198.861 458.917C195.431 455.619 192.976 450.978 198.268 448.193C201.488 446.467 198.617 441.539 195.378 443.246Z" fill="#E6E3E3"/>
<path d="M221.977 449.756H190.582C187.387 449.756 184.793 447.153 184.793 443.945V434.808C184.793 431.601 187.387 428.998 190.582 428.998H221.977C225.172 428.998 227.766 431.601 227.766 434.808V443.945C227.766 447.153 225.172 449.756 221.977 449.756Z" fill="#E6E3E3"/>
<path d="M263.374 271.499C224.045 271.499 192.159 292.635 192.159 318.709V429.813H334.584V318.709C334.584 292.635 302.703 271.499 263.374 271.499Z" fill="#E6E3E3"/>
<path d="M255.315 273.22C254.599 275.425 252.917 277.194 251.484 278.963C249.922 280.89 248.355 282.808 246.783 284.725C243.621 288.57 240.435 292.391 237.22 296.187C234.865 298.973 238.868 303.028 241.242 300.224C244.854 295.952 248.441 291.652 251.986 287.323C255.134 283.483 259.237 279.557 260.804 274.739C261.936 271.24 256.447 269.739 255.315 273.22Z" fill="#FAF9F9"/>
<path d="M247.366 284.778C240.526 286.211 234.464 282.688 229.023 278.977C225.989 276.906 223.137 281.849 226.152 283.905C232.988 288.57 240.425 292.05 248.876 290.281C252.458 289.533 250.944 284.03 247.366 284.778Z" fill="#FAF9F9"/>
<path d="M233.604 285.756C229.343 287.079 225.101 288.517 220.802 289.687C216.818 290.77 212.084 291.633 208.195 289.74C204.913 288.143 202.028 293.062 205.324 294.668C214.816 299.289 225.86 294.136 235.118 291.259C238.601 290.181 237.115 284.668 233.604 285.756Z" fill="#FAF9F9"/>
<path d="M218.7 294.179C218.251 298.196 217.993 302.247 219.598 306.058C220.959 309.284 223.348 311.734 226.338 313.489C229.505 315.344 232.371 310.416 229.209 308.56C223.715 305.344 223.744 299.931 224.384 294.184C224.795 290.535 219.106 290.564 218.7 294.179Z" fill="#FAF9F9"/>
<path d="M218.198 302.309C217.61 304.375 214.926 305.809 213.335 307.026C211.291 308.589 209.265 310.176 207.201 311.71C203.337 314.582 199.267 316.571 194.342 315.953C190.721 315.497 190.754 321.207 194.342 321.662C200.466 322.434 205.926 319.773 210.689 316.178C213.383 314.145 216.072 312.098 218.738 310.027C220.911 308.34 222.908 306.576 223.687 303.834C224.69 300.291 219.201 298.776 218.198 302.309Z" fill="#FAF9F9"/>
<path d="M207.827 315.253C207.359 320.483 207.192 325.742 209.561 330.569C211.749 335.032 215.762 337.813 220.071 339.985C223.333 341.629 226.214 336.706 222.942 335.056C219.483 333.311 216.182 331.336 214.477 327.688C212.666 323.815 213.149 319.376 213.517 315.253C213.841 311.595 208.152 311.619 207.827 315.253Z" fill="#FAF9F9"/>
<path d="M209.609 327.746C204.794 334.15 198.832 339.663 192.359 344.342C189.417 346.471 192.254 351.423 195.23 349.27C202.549 343.973 209.074 337.861 214.52 330.622C216.722 327.693 211.787 324.845 209.609 327.746Z" fill="#FAF9F9"/>
<path d="M201.116 339.678C199.907 344.457 204.278 347.732 207.612 350.325C211.429 353.293 215.556 355.752 219.918 357.818C223.209 359.376 226.099 354.457 222.789 352.89C219.631 351.394 216.569 349.707 213.674 347.736C212.346 346.83 211.056 345.872 209.824 344.836C209.117 344.242 206.322 342.286 206.599 341.197C207.502 337.636 202.018 336.116 201.116 339.678Z" fill="#FAF9F9"/>
<path d="M208.085 351.164C208.3 352.319 206.069 353.997 205.338 354.697C204.345 355.651 203.332 356.6 202.257 357.463C199.869 359.381 197.232 360.747 194.28 361.524C190.74 362.454 192.24 367.962 195.794 367.027C200.184 365.872 203.948 363.571 207.349 360.594C210.622 357.727 214.467 354.424 213.574 349.649C212.896 346.039 207.416 347.569 208.085 351.164Z" fill="#FAF9F9"/>
<path d="M205.3 359.06C204.259 363.048 206.552 366.404 209.451 368.935C212.795 371.855 216.665 374.199 220.591 376.236C223.84 377.919 226.72 372.995 223.462 371.308C220.687 369.87 217.993 368.278 215.456 366.447C213.884 365.311 210.168 362.928 210.784 360.584C211.716 357.017 206.232 355.502 205.3 359.06Z" fill="#FAF9F9"/>
<path d="M210.416 367.319C205.668 373.954 198.928 378.801 191.734 382.459C188.466 384.117 191.342 389.046 194.604 387.387C202.716 383.264 210.001 377.65 215.327 370.201C217.462 367.209 212.532 364.357 210.416 367.319Z" fill="#FAF9F9"/>
<path d="M201.937 378.437C200.872 382.967 205.611 386.538 208.611 389.247C212.165 392.454 216.029 395.316 220.056 397.89C223.152 399.87 226.008 394.933 222.927 392.962C219.879 391.016 216.942 388.921 214.185 386.572C212.939 385.508 211.725 384.405 210.555 383.255C210.154 382.861 207.33 380.345 207.421 379.951C208.262 376.38 202.778 374.856 201.937 378.437Z" fill="#FAF9F9"/>
<path d="M210.058 388.619C206.604 395.671 199.711 400.254 192.56 402.967C189.168 404.252 190.64 409.774 194.074 408.47C202.549 405.254 210.856 399.904 214.969 391.5C216.579 388.211 211.673 385.316 210.058 388.619Z" fill="#FAF9F9"/>
<path d="M204.283 400.973C205.057 403.801 208.071 405.124 210.354 406.567C213.397 408.494 216.445 410.422 219.488 412.344C222.593 414.309 225.449 409.372 222.359 407.416C220.109 405.992 217.859 404.568 215.609 403.144C214.548 402.473 213.493 401.802 212.432 401.136C211.988 400.853 209.9 399.932 209.771 399.453C208.802 395.915 203.313 397.416 204.283 400.973Z" fill="#FAF9F9"/>
<path d="M210.579 407.09C210.789 407.775 207.369 410.019 206.743 410.522C205.171 411.783 203.595 413.044 201.99 414.266C200.394 415.484 198.775 416.668 197.127 417.809C196.41 418.303 195.684 418.792 194.953 419.271C194.461 419.592 193.969 419.909 193.468 420.22C192.154 420.786 192.503 421.098 194.509 421.155C194.657 422.306 194.805 423.461 194.953 424.612C194.991 424.535 195.034 424.458 195.073 424.386C196.783 421.141 191.877 418.255 190.162 421.505C190.124 421.582 190.081 421.659 190.043 421.731C189.398 422.953 189.651 424.161 190.487 425.187C192.474 427.622 195.469 425.714 197.452 424.434C200.232 422.637 202.907 420.69 205.529 418.672C207.956 416.812 210.378 414.928 212.724 412.967C214.993 411.074 217.004 408.701 216.053 405.57C215.002 402.071 209.509 403.562 210.579 407.09Z" fill="#FAF9F9"/>
<path d="M202.974 418.13C204.292 421.39 207.98 422.732 210.841 424.42C214.243 426.419 217.644 428.418 221.045 430.417C224.212 432.277 227.078 427.344 223.916 425.489C221.169 423.873 218.423 422.263 215.676 420.647C214.367 419.88 213.058 419.108 211.749 418.341C211.095 417.958 210.44 417.574 209.786 417.191C209.518 417.032 208.181 415.935 208.453 416.62C207.101 413.25 201.598 414.722 202.974 418.13Z" fill="#FAF9F9"/>
<path d="M268.127 274.48C269.565 284.322 275.35 292.856 282.682 299.318C285.424 301.734 289.461 297.712 286.705 295.281C280.003 289.375 274.925 281.954 273.611 272.961C273.085 269.341 267.601 270.88 268.127 274.48Z" fill="#FAF9F9"/>
<path d="M279.377 289.39C289.537 289.84 299.989 290.248 309.835 287.228C313.327 286.158 311.836 280.645 308.32 281.724C298.958 284.596 289.036 284.107 279.377 283.68C275.718 283.517 275.727 289.227 279.377 289.39Z" fill="#FAF9F9"/>
<path d="M294.185 289.888C297.529 296.259 298.126 303.22 295.805 310.042C294.62 313.527 300.114 315.023 301.289 311.561C304.098 303.297 303.118 294.687 299.091 287.012C297.391 283.757 292.48 286.638 294.185 289.888Z" fill="#FAF9F9"/>
<path d="M301.829 300.444C310.437 304.86 319.317 308.57 329.105 308.939C332.764 309.078 332.759 303.369 329.105 303.23C320.349 302.904 312.39 299.462 304.7 295.516C301.451 293.848 298.566 298.771 301.829 300.444Z" fill="#FAF9F9"/>
<path d="M314.263 305.516C313.886 309.912 314.406 313.795 312.467 317.942C310.537 322.06 307.418 325.526 303.821 328.254C300.94 330.44 303.768 335.402 306.692 333.182C311.072 329.855 314.989 325.847 317.382 320.823C318.457 318.561 319.25 316.202 319.628 313.723C320.043 310.981 319.723 308.263 319.957 305.516C320.263 301.859 314.574 301.883 314.263 305.516Z" fill="#FAF9F9"/>
<path d="M315.309 318.009C315.73 322.309 319.107 324.682 322.327 327.089C325.881 329.745 329.607 332.151 333.447 334.371C336.624 336.207 339.49 331.279 336.318 329.443C333.452 327.784 330.643 326.03 327.925 324.131C326.664 323.249 325.412 322.353 324.199 321.408C323.268 320.684 321.128 319.347 320.994 318.009C320.645 314.39 314.951 314.352 315.309 318.009Z" fill="#FAF9F9"/>
<path d="M322.064 327.937C323 338.057 311.502 344.927 304.222 349.596C301.145 351.571 303.997 356.509 307.093 354.525C316.107 348.743 328.895 340.339 327.753 327.937C327.419 324.313 321.725 324.275 322.064 327.937Z" fill="#FAF9F9"/>
<path d="M317.263 342.19C316.093 345.78 318.715 348.518 321.409 350.464C324.92 353.005 328.809 355.129 332.492 357.41C335.616 359.347 338.473 354.409 335.363 352.482C332.874 350.939 330.385 349.395 327.897 347.856C326.979 347.286 322.336 344.985 322.752 343.709C323.889 340.21 318.4 338.709 317.263 342.19Z" fill="#FAF9F9"/>
<path d="M325.279 350.459C318.643 356.452 311.211 361.394 303.329 365.57C300.09 367.286 302.961 372.214 306.199 370.498C314.511 366.097 322.312 360.809 329.301 354.496C332.029 352.032 327.997 348.01 325.279 350.459Z" fill="#FAF9F9"/>
<path d="M314.597 362.305C314.072 366.773 315.997 371.016 318.94 374.275C322.661 378.403 327.529 379.803 332.344 382.123C335.626 383.705 338.516 378.787 335.215 377.195C331.312 375.311 327.132 374.275 323.908 371.207C321.39 368.81 319.871 365.829 320.287 362.3C320.712 358.662 315.023 358.695 314.597 362.305Z" fill="#FAF9F9"/>
<path d="M320.788 374.477C321.161 377.406 316.632 379.86 314.478 381.049C311.258 382.828 307.752 383.902 304.155 384.602C300.567 385.301 302.086 390.8 305.669 390.105C310.446 389.175 315.18 387.511 319.269 384.822C322.666 382.588 327.065 379.055 326.478 374.477C326.282 372.938 325.312 371.639 323.635 371.624C322.25 371.61 320.593 372.952 320.788 374.477Z" fill="#FAF9F9"/>
<path d="M310.69 387.435C312.042 392.056 316.074 395.052 319.972 397.497C324.252 400.182 328.876 402.258 333.619 403.959C337.073 405.196 338.559 399.683 335.134 398.456C331.336 397.095 327.672 395.441 324.194 393.389C321.266 391.663 317.201 389.424 316.174 385.92C315.147 382.396 309.658 383.897 310.69 387.435Z" fill="#FAF9F9"/>
<path d="M319.288 396.069C318.987 398.931 315.223 401.601 313.107 403.149C310.246 405.244 307.107 406.903 303.854 408.293C300.496 409.731 303.391 414.645 306.725 413.221C310.924 411.423 314.841 409.142 318.371 406.227C321.605 403.557 324.524 400.402 324.978 396.073C325.36 392.42 319.666 392.449 319.288 396.069Z" fill="#FAF9F9"/>
<path d="M313.785 409.122C320.478 415.072 328.35 419.271 336.748 422.258C340.207 423.49 341.692 417.977 338.263 416.754C330.83 414.108 323.736 410.355 317.812 405.086C315.08 402.655 311.039 406.678 313.785 409.122Z" fill="#FAF9F9"/>
<path d="M263.312 293.833C240.898 293.833 222.731 312.041 222.731 334.505V430.22H303.892V334.505C303.892 312.041 285.721 293.833 263.312 293.833Z" fill="#CCCCCC"/>
<path d="M323.597 413.59C317.191 418.71 310.594 423.571 303.844 428.217C300.845 430.283 303.687 435.23 306.715 433.145C313.867 428.221 320.836 423.049 327.619 417.627C330.481 415.34 326.435 411.323 323.597 413.59Z" fill="#FAF9F9"/>
<path d="M245.713 300.396C245.881 321.087 246.053 341.782 245.776 362.473C245.642 372.66 245.398 382.842 244.997 393.025C244.6 403.077 244.013 413.02 245.46 423.02C246.277 428.662 245.909 433.778 245.107 439.396C244.285 445.173 243.463 450.949 242.642 456.726C242.131 460.317 247.61 461.87 248.126 458.246C248.857 453.092 249.592 447.944 250.323 442.79C251.006 437.972 252 433.054 251.742 428.169C251.484 423.26 250.404 418.451 250.209 413.528C250.008 408.427 250.237 403.327 250.462 398.236C251.379 377.416 251.627 356.576 251.599 335.737C251.584 323.959 251.489 312.18 251.393 300.401C251.369 296.724 245.68 296.715 245.713 300.396Z" fill="#FAF9F9"/>
<path d="M260.145 298.46C263.517 309.855 263.575 321.71 263.054 333.489C262.533 345.287 261.874 357.061 261.735 368.873C261.592 381.145 261.807 393.418 262.38 405.676C262.657 411.649 263.025 417.617 263.474 423.581C263.914 429.425 264.554 435.278 264.449 441.146C264.329 447.833 262.868 454.401 262.633 461.084C262.399 467.905 263.03 474.718 263.651 481.501C263.985 485.13 269.675 485.164 269.34 481.501C268.772 475.331 268.199 469.142 268.28 462.939C268.351 457.138 269.374 451.472 269.89 445.71C270.439 439.573 269.947 433.447 269.455 427.33C268.977 421.376 268.571 415.417 268.256 409.448C266.966 385.004 267.396 360.637 268.609 336.207C269.264 323.043 269.407 309.697 265.629 296.945C264.587 293.426 259.094 294.922 260.145 298.46Z" fill="#FAF9F9"/>
<path d="M277.261 303.162C273.444 346.936 281.674 390.484 281.756 434.228C281.765 440.345 281.722 446.505 281.221 452.608C280.987 455.456 280.447 458.183 279.721 460.94C278.961 463.84 278.794 466.314 279.998 469.104C281.45 472.464 286.351 469.564 284.908 466.223C284.034 464.2 285.63 461.098 286.036 459.085C286.552 456.515 286.829 453.893 287.006 451.28C287.35 446.074 287.435 440.839 287.445 435.623C287.469 424.918 286.982 414.214 286.294 403.533C284.918 382.147 282.721 360.804 282.085 339.376C281.727 327.295 281.899 315.205 282.945 303.162C283.265 299.505 277.576 299.524 277.261 303.162Z" fill="#FAF9F9"/>
<path d="M290.144 316.111C290.942 326.053 291.735 335.996 292.533 345.934C293.326 355.843 294.08 365.613 293.01 375.527C292.485 380.388 291.802 385.254 291.806 390.153C291.811 394.813 292.614 399.329 293.832 403.811C295.117 408.538 296.583 413.193 296.975 418.101C297.372 423.068 297.118 428.063 296.932 433.035C296.517 444.305 296.101 455.571 295.69 466.841C295.556 470.513 301.241 470.509 301.38 466.841C301.747 456.822 302.115 446.807 302.483 436.788C302.841 427.047 303.395 417.44 300.878 407.919C299.646 403.259 298.031 398.633 297.639 393.796C297.257 389.074 297.716 384.338 298.241 379.64C298.79 374.707 299.349 369.798 299.34 364.831C299.335 359.764 298.929 354.707 298.523 349.659C297.63 338.475 296.732 327.29 295.833 316.106C295.542 312.472 289.848 312.444 290.144 316.111Z" fill="#FAF9F9"/>
<path d="M235.591 308.589C234.158 318.038 231.731 327.3 230.284 336.744C228.841 346.159 228.669 355.359 230.675 364.707C231.712 369.52 232.925 374.275 233.594 379.16C234.244 383.897 234.54 388.686 234.731 393.461C235.123 403.283 235.381 413.164 235.089 422.991C234.755 434.314 233.57 445.585 231.578 456.731C230.938 460.321 236.417 461.865 237.062 458.25C240.554 438.706 241.099 419.214 240.602 399.41C240.363 389.836 239.871 380.239 237.879 370.853C236.852 366.016 235.476 361.222 235.003 356.284C234.564 351.672 234.717 347.022 235.214 342.425C236.389 331.533 239.427 320.934 241.07 310.114C241.62 306.513 236.14 304.965 235.591 308.589Z" fill="#FAF9F9"/>
<path d="M307.346 443.965C301.719 446.927 299.717 453.27 302.884 458.855C306.668 465.518 314.449 468.385 318.744 474.559C319.747 476.002 321.873 476.573 323.21 475.135C324.71 473.524 325.814 471.765 326.416 469.636C324.586 469.636 322.761 469.636 320.932 469.636C321.118 470.624 321.304 471.606 321.495 472.594C321.82 474.305 324.247 475.322 325.675 474.301C327.677 472.867 328.995 470.782 328.102 468.26C326.368 468.994 324.639 469.727 322.905 470.461C323.621 471.793 324.619 472.69 325.871 473.519C327.247 474.43 328.895 473.687 329.764 472.493C335.702 464.329 339.185 450.384 328.589 444.478C323.454 441.616 317.559 442.196 312.004 443.193C309.4 443.663 307.26 444.267 306.152 446.894C304.919 449.813 304.012 452.92 302.961 455.911C302.039 458.529 305.913 460.873 307.714 458.687C310.408 455.413 313.107 452.138 315.801 448.859C318.104 446.064 314.191 442.018 311.779 444.823C308.602 448.519 305.875 452.517 303.864 456.975C302.612 459.751 305.927 462.934 308.33 460.432C312.123 456.486 315.911 452.541 319.704 448.596C318.214 447.445 316.728 446.29 315.238 445.139C312.562 449.401 309.887 453.658 307.212 457.92C308.851 458.879 310.484 459.842 312.123 460.801C314.683 456.213 318.323 452.445 322.565 449.377C321.271 448.078 319.972 446.774 318.672 445.475C315.443 450.858 309.09 454.262 307.733 460.763C307.179 463.423 310.418 465.71 312.486 463.538C316.972 458.831 321.457 454.123 325.943 449.415C324.452 448.265 322.967 447.109 321.476 445.959C317.841 451.544 314.015 456.995 310.007 462.316C308.063 464.895 312.338 468.179 314.473 465.772C318.949 460.734 323.268 455.561 327.409 450.245C325.823 449.319 324.242 448.394 322.656 447.469C320.335 453.049 317.167 458.313 313.48 463.092C314.97 464.243 316.456 465.398 317.946 466.549C321.534 461.539 325.384 456.74 329.454 452.114C327.963 451.923 326.478 451.731 324.987 451.539C327.576 455.806 327.342 461.208 323.736 464.9C323.435 465.207 323.115 465.537 322.723 465.734C322.427 465.902 322.112 465.988 321.777 465.983C321.185 465.921 321.132 466.295 321.62 467.105C321.696 467.119 323.215 464.502 323.411 464.205C325.183 461.52 326.951 458.84 328.723 456.156C326.956 455.676 325.188 455.197 323.425 454.717C323.425 458.773 321.992 462.498 319.518 465.691C321.104 466.113 322.685 466.53 324.271 466.951C323.115 464.046 321.739 461.319 320.024 458.706C318.386 459.665 316.752 460.628 315.113 461.587C318.209 465.767 320.449 470.293 321.51 475.408C321.978 477.671 324.753 477.954 326.263 476.669C327.882 475.288 328.895 473.38 328.704 471.218C327.084 471.889 325.465 472.565 323.85 473.236C324.992 474.583 326.377 475.298 327.992 475.931C330.094 476.76 331.995 474.344 331.489 472.421C331.178 471.237 330.868 470.053 330.562 468.869C329.396 470.039 328.231 471.208 327.065 472.378C328.742 472.651 330.419 472.93 332.1 473.203C334.708 473.629 337.097 470.58 334.866 468.433C333.853 467.46 333.113 466.482 332.497 465.221C331.785 463.754 329.908 463.572 328.604 464.195C324.366 466.228 320.124 468.26 315.887 470.293C317.316 471.113 318.739 471.937 320.167 472.757C319.943 470.978 319.714 469.2 319.489 467.426C319.088 464.291 315.042 463.476 313.905 466.669C313.656 467.369 313.293 467.949 312.816 468.519C314.402 468.941 315.983 469.358 317.569 469.78C317 468.011 316.546 466.232 316.198 464.406C315.515 460.801 310.035 462.325 310.714 465.926C311.058 467.752 311.516 469.531 312.085 471.3C312.691 473.184 315.381 474.291 316.838 472.56C317.989 471.194 318.787 469.881 319.389 468.193C317.526 467.939 315.663 467.685 313.804 467.436C314.029 469.214 314.258 470.993 314.483 472.767C314.765 474.977 316.661 476.237 318.763 475.231C323 473.198 327.242 471.165 331.479 469.133C330.185 468.792 328.885 468.452 327.586 468.107C328.398 469.775 329.511 471.189 330.844 472.474C331.766 470.883 332.688 469.296 333.61 467.704C331.933 467.431 330.256 467.153 328.575 466.88C326.483 466.539 324.481 468.121 325.078 470.389C325.389 471.573 325.699 472.757 326.005 473.941C327.17 472.771 328.336 471.602 329.502 470.432C328.78 470.149 328.36 469.785 327.868 469.205C326.325 467.383 322.799 468.802 323.014 471.223C323.091 472.086 322.914 472.067 322.241 472.637C323.827 473.059 325.408 473.476 326.994 473.898C325.842 468.356 323.378 463.246 320.024 458.716C317.894 455.839 313.059 458.466 315.113 461.597C316.542 463.778 317.822 466.05 318.787 468.481C319.475 470.211 322.073 471.63 323.54 469.742C326.96 465.331 329.115 460.393 329.115 454.732C329.115 451.793 325.331 450.993 323.817 453.294C322.298 455.595 320.784 457.891 319.265 460.192C318.094 461.971 316.566 463.768 316.102 465.887C315.013 470.854 320.855 472.632 324.586 471.146C328.417 469.622 331.073 465.115 332.014 461.247C333.075 456.889 332.21 452.483 329.903 448.682C329 447.196 326.678 446.692 325.436 448.107C321.046 453.097 316.909 458.294 313.04 463.696C311.172 466.3 315.529 469.718 317.507 467.153C321.844 461.534 325.417 455.576 328.15 449.013C329.224 446.434 325.107 444.041 323.397 446.237C319.255 451.553 314.937 456.726 310.461 461.764C311.951 462.915 313.437 464.07 314.927 465.221C318.935 459.9 322.761 454.449 326.397 448.864C328.169 446.141 324.151 443.073 321.93 445.408C317.444 450.115 312.959 454.823 308.473 459.531C310.059 460.456 311.64 461.381 313.226 462.306C313.814 459.483 315.863 457.416 317.788 455.393C319.886 453.188 322.021 451.007 323.597 448.38C324.987 446.06 322.083 442.757 319.704 444.478C314.669 448.121 310.274 452.483 307.222 457.949C305.426 461.165 310.183 463.931 312.133 460.83C314.808 456.568 317.483 452.311 320.158 448.049C321.882 445.307 317.932 442.258 315.691 444.593C311.898 448.538 308.11 452.483 304.317 456.429C305.808 457.579 307.293 458.735 308.784 459.885C310.594 455.878 312.945 452.22 315.811 448.888C314.468 447.541 313.131 446.199 311.789 444.852C309.094 448.126 306.395 451.4 303.701 454.679C305.287 455.604 306.868 456.53 308.454 457.455C309.199 455.331 309.949 453.203 310.695 451.079C310.929 450.408 311.316 449.281 311.564 449.099C312.223 448.615 314.048 448.62 314.851 448.495C318.667 447.891 322.914 447.598 326.315 449.78C333.185 454.195 328.584 464.516 324.858 469.641C326.158 469.3 327.452 468.96 328.752 468.615C328.298 468.404 327.992 468.068 327.825 467.603C326.32 464.809 321.534 466.712 322.628 469.804C322.69 469.67 322.752 469.531 322.814 469.396C324.209 469.967 325.599 470.533 326.994 471.103C326.807 470.115 326.621 469.133 326.43 468.145C325.885 465.274 321.672 465.585 320.946 468.145C320.607 469.334 320.038 470.226 319.202 471.127C320.693 471.319 322.179 471.511 323.669 471.702C320.234 466.76 315.089 463.749 310.819 459.641C307.389 456.343 304.934 451.702 310.226 448.917C313.456 447.186 310.585 442.258 307.346 443.965Z" fill="#E6E3E3"/>
<path d="M334.322 449.756H302.927C299.731 449.756 297.138 447.153 297.138 443.945V434.808C297.138 431.601 299.731 428.998 302.927 428.998H334.322C337.517 428.998 340.111 431.601 340.111 434.808V443.945C340.111 447.153 337.517 449.756 334.322 449.756Z" fill="#E6E3E3"/>
<path d="M1207.75 416.673C1216.38 437.411 1222.71 459.003 1226 481.257C1234.34 537.513 1221.58 598.286 1184.3 641.364C1143.1 688.972 1079.17 709.207 1018.38 726.092C978.96 737.041 939.163 747.53 898.401 751.192C828.161 757.511 757.624 743.34 689.843 723.934C636.418 708.637 583.312 689.739 537.09 658.986C499.032 633.665 466.591 600.951 430.845 572.485C391.535 541.176 348.127 514.967 302.067 494.742C259.815 476.185 214.467 462.532 168.293 463.323C110.893 464.305 56.3253 487.388 5.03015 513.059C-55.4846 543.347 -113.897 577.797 -169.654 616.095L-166.382 613.641C-216.946 598.056 -270.821 598.051 -323.234 590.706C-375.647 583.367 -430.172 566.598 -464.356 526.353C-490.338 495.763 -499.5 456.319 -495.793 416.683H-657.89V927.561H1480.08V416.673H1207.75Z" fill="#E6E5E3"/>
<path d="M533.655 751.145C604.426 696.465 663.035 626.258 704.088 546.976C725.628 505.384 742.319 461.506 758.962 417.742C769.5 390.024 780.042 362.305 790.58 334.587C812.621 343.125 819.395 370.004 827 392.305C834.605 414.607 853.722 439.386 876.432 432.819C886.091 430.024 893.223 422.018 899.266 414.012C976.682 311.466 959.15 164.868 1017.5 50.4847C1021.68 42.2871 1027.52 33.3704 1036.68 32.1719C1053.46 29.9763 1060.05 52.7187 1062.33 69.4207C1071.56 137.178 1120.64 199.911 1186.73 218.42C1204.62 223.43 1223.47 225.357 1240.55 232.668C1255.44 239.044 1268.31 249.231 1280.98 259.298C1385.49 342.348 1495.06 432.373 1537.94 558.487C1560.61 625.165 1562.58 696.805 1564.33 767.18C1564.56 776.663 1564.73 786.495 1560.94 795.196C1556.64 805.066 1547.84 812.152 1539.25 818.691C1378.16 941.406 1179.28 1014.22 976.734 1024.64C917.82 1027.67 857.764 1025.41 801.567 1007.53C681.703 969.392 594.218 864.914 537.119 753.244" fill="#EAEEF0"/>
<path d="M863.063 729.22H910.126L886.594 601.951L863.063 474.677L839.531 601.951L816 729.22H863.063Z" fill="#CCCCCC"/>
<path d="M945.5 752.66H1006L975.75 588.583L945.5 424.5L915.25 588.583L885 752.66H945.5Z" fill="#CCCCCC"/>
<path d="M314.946 733.819H362.009L338.478 606.546L314.946 479.272L291.415 606.546L267.883 733.819H314.946Z" fill="#CCCCCC"/>
<path d="M1002.58 675.429C985.868 674.509 969.755 669.207 953.509 665.142C894.284 650.309 831.089 651.886 772.662 669.648C751.361 676.125 730.653 684.71 708.908 689.442C654.957 701.192 598.961 688.541 543.778 689.83C474.66 691.446 405.25 714.941 337.517 700.976C275.359 688.162 218.456 644.408 155.381 651.33C105.356 656.819 57.5291 694.121 9.27686 679.763L8.73228 681.801C6.03328 682.644 3.33908 683.104 0.678299 683.22V849.06H1121.17V671.963C1086.8 655.765 1042.5 677.63 1002.58 675.429Z" fill="#CCCCCC"/>
<path d="M179.805 849.151H288.611L234.206 610.06L179.805 370.963L125.4 610.06L71.0002 849.151H179.805Z" fill="#333333"/>
<path d="M54.6534 849.151H205.071L129.862 507.096L54.6534 165.035L-20.5553 507.096L-95.7641 849.151H54.6534Z" fill="black"/>
<path d="M267.979 849.152H353.974L310.976 689.869L267.979 530.586L224.986 689.869L181.989 849.152H267.979Z" fill="black"/>
<path d="M1168.99 848.846H1254.98L1211.98 574.955L1168.99 301.064L1125.99 574.955L1083 848.846H1168.99Z" fill="#333333"/>
<path d="M1326.75 849.483H1469.5L1398.12 515.562L1326.75 181.642L1255.37 515.562L1184 849.483H1326.75Z" fill="black"/>
<path d="M427.454 715.099H454.066L440.757 643.128L427.454 571.157L414.145 643.128L400.836 715.099H427.454Z" fill="#CCCCCC"/>
<path d="M665.613 747.073H692.225L678.921 675.102L665.613 603.131L652.304 675.102L639 747.073H665.613Z" fill="#CCCCCC"/>
<path d="M604.613 778.183H631.225L617.921 706.212L604.613 634.241L591.304 706.212L578 778.183H604.613Z" fill="#CCCCCC"/>
</g>
<defs>
<linearGradient id="paint0_linear" x1="720" y1="0" x2="720" y2="849" gradientUnits="userSpaceOnUse">
<stop offset="0.0625" stop-color="#E2F8FF"/>
</linearGradient>
</defs>
</svg>
